<svg id="svg" version="1.1" xmlns="http://www.w3.org/2000/svg" xmlns:xlink="http://www.w3.org/1999/xlink" width="400" height="214.50892857142856" viewBox="0, 0, 400,214.50892857142856"><g id="svgg"><path id="path0" d="M181.672 8.375 C 177.130 8.895,175.014 9.659,173.522 11.319 C 173.037 11.860,172.409 12.551,172.127 12.857 C 171.845 13.162,171.392 13.910,171.119 14.518 C 170.534 15.825,169.929 16.309,168.877 16.309 C 168.133 16.309,167.167 16.920,167.167 17.390 C 167.167 17.504,166.987 17.597,166.767 17.597 C 164.855 17.597,164.180 19.996,165.257 22.961 C 165.622 23.965,166.021 25.075,166.145 25.429 C 166.269 25.783,166.484 26.218,166.625 26.395 C 166.765 26.572,167.469 28.358,168.190 30.365 C 170.848 37.767,171.936 40.668,172.093 40.773 C 172.181 40.832,172.611 41.894,173.048 43.133 C 174.620 47.597,177.469 55.205,177.668 55.472 C 177.755 55.590,178.048 56.292,178.319 57.032 C 178.776 58.282,179.085 58.755,179.302 58.538 C 179.387 58.453,181.381 53.316,182.575 50.107 C 182.883 49.281,183.204 48.556,183.288 48.496 C 183.593 48.279,186.481 40.650,186.481 40.061 C 186.481 39.605,183.539 31.999,183.233 31.663 C 182.803 31.192,183.196 31.116,186.058 31.116 C 188.275 31.116,189.094 31.187,189.162 31.384 C 190.926 36.488,194.270 45.577,194.432 45.708 C 194.505 45.767,194.669 46.105,194.796 46.459 C 194.922 46.813,195.477 48.358,196.029 49.893 C 196.580 51.427,197.270 53.358,197.561 54.185 C 199.114 58.588,199.392 59.106,199.723 58.208 C 199.799 58.002,199.924 57.784,200.000 57.725 C 200.129 57.626,201.192 54.948,204.169 47.218 C 204.827 45.511,205.365 43.990,205.365 43.838 C 205.365 43.686,205.448 43.562,205.550 43.562 C 205.743 43.562,206.438 41.919,206.438 41.463 C 206.438 41.271,205.673 41.202,203.541 41.202 L 200.644 41.202 200.644 40.558 L 200.644 39.914 203.970 39.914 C 206.291 39.914,207.296 39.841,207.296 39.673 C 207.296 39.540,207.884 37.922,208.602 36.078 C 209.321 34.234,210.034 32.387,210.186 31.974 C 210.425 31.331,210.575 31.214,211.235 31.157 L 212.006 31.091 211.683 31.908 C 211.505 32.358,211.221 32.976,211.052 33.283 C 210.607 34.089,208.584 39.289,208.584 39.628 C 208.584 39.862,210.281 39.914,217.918 39.914 L 227.253 39.914 227.253 40.554 L 227.253 41.194 221.942 41.252 L 216.631 41.309 216.576 63.705 L 216.522 86.102 217.113 85.952 C 217.438 85.870,218.700 85.718,219.917 85.615 C 223.456 85.316,224.149 84.780,222.961 83.262 C 222.731 82.967,222.540 82.653,222.537 82.564 C 222.528 82.248,223.077 82.411,223.317 82.795 C 224.272 84.323,226.799 84.011,228.385 82.169 C 229.290 81.119,230.420 80.725,230.794 81.330 C 231.079 81.791,232.191 81.569,232.403 81.009 C 232.641 80.384,233.141 80.326,234.261 80.794 C 235.838 81.453,236.522 81.236,237.638 79.721 C 237.891 79.377,238.008 79.345,238.226 79.560 C 238.665 79.994,239.485 79.897,239.485 79.412 C 239.485 78.821,239.876 78.654,240.320 79.056 C 241.455 80.083,242.036 79.245,242.835 75.429 C 243.454 72.473,243.455 72.532,242.811 72.532 C 242.069 72.532,242.136 72.267,243.149 71.202 C 243.980 70.329,244.008 70.256,243.714 69.745 C 243.149 68.762,243.064 67.099,243.562 66.788 C 243.798 66.641,243.991 66.376,243.991 66.200 C 243.991 66.007,244.192 65.880,244.495 65.880 C 245.591 65.880,246.213 63.493,245.418 62.333 C 245.259 62.100,245.058 61.620,244.973 61.266 C 244.807 60.580,243.430 58.369,243.169 58.369 C 243.083 58.369,242.903 58.079,242.770 57.725 C 242.544 57.128,242.562 57.082,243.011 57.082 C 243.892 57.082,244.333 56.340,244.006 55.411 C 243.507 53.992,242.978 53.600,241.790 53.763 C 240.458 53.946,238.565 52.178,239.485 51.609 C 239.833 51.395,239.730 50.487,239.342 50.338 C 239.069 50.233,239.044 50.141,239.235 49.950 C 239.597 49.588,239.564 49.491,238.742 48.507 C 238.333 48.018,237.936 47.284,237.859 46.877 C 237.782 46.464,237.592 46.137,237.428 46.137 C 237.267 46.137,236.977 45.823,236.784 45.440 C 236.590 45.056,236.185 44.479,235.883 44.156 C 235.367 43.604,235.356 43.546,235.693 43.173 C 236.171 42.646,236.145 42.038,235.601 40.994 C 235.231 40.285,235.159 39.808,235.202 38.358 C 235.273 35.994,235.114 35.461,233.965 34.214 C 233.429 33.631,232.819 32.759,232.611 32.275 C 232.402 31.791,231.981 31.198,231.675 30.957 C 231.368 30.716,230.821 29.953,230.458 29.262 C 230.095 28.570,229.624 27.811,229.411 27.575 C 229.197 27.339,228.902 26.615,228.755 25.966 C 228.455 24.648,228.101 24.132,227.373 23.949 C 226.865 23.822,225.762 22.586,224.927 21.208 C 224.664 20.775,224.097 20.196,223.665 19.921 C 223.234 19.646,222.727 19.324,222.540 19.206 C 218.765 16.825,218.273 16.467,218.160 16.019 C 218.001 15.386,216.854 14.770,212.743 13.111 C 208.951 11.582,208.218 11.494,207.351 12.468 C 205.129 14.967,200.636 14.106,199.149 10.896 C 198.659 9.838,198.339 9.410,197.967 9.317 C 197.686 9.246,197.290 9.004,197.086 8.779 C 196.489 8.120,195.105 8.231,194.007 9.026 C 192.975 9.774,192.613 9.758,190.480 8.868 C 189.027 8.262,184.751 8.023,181.672 8.375 M160.476 28.487 C 160.299 28.694,159.800 29.508,159.367 30.296 C 158.934 31.085,158.112 32.243,157.541 32.871 C 155.986 34.582,155.947 34.706,155.836 38.358 C 155.781 40.158,155.664 41.631,155.575 41.631 C 155.212 41.631,155.119 43.172,155.458 43.547 C 155.654 43.763,155.796 44.314,155.800 44.867 C 155.805 45.822,156.439 48.570,156.717 48.849 C 156.800 48.931,156.867 49.277,156.867 49.617 C 156.867 49.958,157.011 50.514,157.187 50.855 C 157.487 51.435,157.475 51.512,156.992 52.086 C 156.050 53.206,156.301 56.274,157.470 57.932 C 158.533 59.438,158.546 59.532,157.779 60.027 C 156.220 61.032,156.043 61.894,157.323 62.239 L 158.209 62.477 157.538 63.170 C 157.021 63.703,156.865 64.056,156.860 64.710 C 156.852 65.747,156.555 66.165,155.518 66.598 C 154.901 66.856,154.721 67.051,154.721 67.466 C 154.721 67.760,154.624 68.060,154.506 68.133 C 154.105 68.381,154.290 69.065,154.882 69.523 C 156.720 70.946,157.176 71.245,157.516 71.245 C 157.775 71.245,157.936 71.476,158.031 71.987 C 158.394 73.921,160.648 75.688,162.448 75.449 C 163.806 75.269,164.094 75.415,164.686 76.583 C 165.118 77.435,165.419 77.693,166.819 78.413 C 168.932 79.500,169.141 79.755,169.349 81.498 C 169.733 84.724,170.728 86.347,172.732 87.012 C 174.418 87.572,174.893 87.364,174.893 86.065 C 174.893 84.930,175.045 84.335,175.336 84.335 C 175.719 84.335,176.395 85.298,176.395 85.844 C 176.395 87.241,177.579 89.700,178.252 89.700 C 178.805 89.700,178.471 91.091,177.763 91.734 C 176.883 92.534,177.007 94.456,177.989 95.228 C 178.277 95.455,178.725 96.048,178.985 96.547 C 179.544 97.620,180.129 98.047,181.254 98.204 C 182.460 98.372,183.322 98.723,183.714 99.205 C 183.914 99.451,184.320 99.629,184.680 99.629 C 185.914 99.628,188.308 99.286,188.435 99.093 C 188.506 98.984,188.965 98.841,189.454 98.775 C 189.943 98.710,190.343 98.572,190.343 98.470 C 190.343 98.367,190.966 98.283,191.728 98.283 C 192.974 98.283,195.162 97.870,195.711 97.531 C 195.827 97.459,195.923 97.175,195.923 96.900 C 195.923 96.552,196.279 96.116,197.094 95.464 C 197.738 94.949,198.321 94.367,198.390 94.171 C 198.793 93.019,201.521 90.221,202.416 90.042 C 202.774 89.971,204.140 90.021,205.450 90.153 C 207.773 90.389,207.865 90.381,209.120 89.861 C 209.828 89.568,210.673 89.265,210.998 89.188 L 211.588 89.048 211.588 65.125 L 211.588 41.202 209.682 41.202 C 208.052 41.202,207.759 41.256,207.664 41.577 C 207.320 42.740,206.128 45.778,205.581 46.888 C 205.231 47.597,204.327 49.769,203.571 51.717 C 202.814 53.664,201.728 56.465,201.156 57.940 C 200.583 59.415,200.051 60.671,199.971 60.730 C 199.892 60.789,199.375 61.996,198.823 63.412 C 198.270 64.828,197.741 66.180,197.647 66.416 C 197.447 66.920,197.636 67.307,195.808 62.661 C 195.135 60.950,194.503 59.448,194.405 59.325 C 194.306 59.201,193.782 57.946,193.240 56.535 C 192.699 55.124,191.834 52.908,191.320 51.609 C 190.805 50.311,190.125 48.573,189.809 47.747 C 189.493 46.921,189.063 45.955,188.853 45.601 C 188.644 45.247,188.248 44.305,187.974 43.509 C 187.373 41.765,187.118 41.705,186.601 43.187 C 186.385 43.806,185.781 45.369,185.260 46.659 C 184.738 47.950,184.124 49.537,183.896 50.186 C 183.668 50.835,183.401 51.421,183.303 51.488 C 183.205 51.555,182.372 53.541,181.452 55.901 C 178.099 64.505,176.847 67.452,176.831 66.779 C 176.824 66.500,175.020 61.753,173.350 57.618 C 172.873 56.438,172.397 55.440,172.293 55.401 C 172.188 55.361,172.103 55.216,172.104 55.079 C 172.104 54.941,171.629 53.621,171.048 52.146 C 170.467 50.671,169.297 47.677,168.449 45.494 C 167.600 43.310,166.832 41.475,166.742 41.416 C 166.653 41.357,166.141 40.150,165.604 38.734 C 165.068 37.318,164.033 34.614,163.303 32.725 C 162.574 30.837,161.881 29.026,161.762 28.702 C 161.515 28.026,160.950 27.932,160.476 28.487 M105.365 123.410 C 101.478 123.680,94.635 125.712,94.635 126.595 C 94.635 126.721,94.505 126.824,94.347 126.824 C 93.311 126.824,88.855 130.901,87.192 133.369 C 85.633 135.683,83.476 140.848,83.476 142.265 C 83.476 142.493,83.390 142.732,83.284 142.797 C 82.371 143.362,82.333 156.387,83.243 157.082 C 83.320 157.141,83.652 158.155,83.980 159.335 C 86.011 166.637,90.857 172.075,97.639 174.662 C 98.911 175.147,102.145 175.966,102.789 175.966 C 103.006 175.966,103.223 176.086,103.273 176.234 C 103.394 176.599,112.877 176.622,113.325 176.258 C 113.491 176.124,114.061 175.944,114.592 175.857 C 123.517 174.408,130.528 167.897,132.846 158.906 C 132.998 158.315,133.186 157.784,133.264 157.725 C 134.317 156.923,134.337 144.176,133.288 142.113 C 133.184 141.907,132.743 140.628,132.309 139.270 C 130.662 134.123,126.893 129.224,122.960 127.119 C 122.547 126.898,121.919 126.515,121.566 126.268 C 118.585 124.188,111.684 122.970,105.365 123.410 M292.924 124.946 C 292.546 125.920,291.815 127.779,291.300 129.077 C 290.785 130.376,290.055 132.259,289.677 133.262 C 289.300 134.265,288.911 135.139,288.812 135.204 C 288.714 135.268,288.355 136.089,288.015 137.028 C 287.674 137.966,287.098 139.458,286.736 140.343 C 285.351 143.723,283.476 148.635,283.476 148.883 C 283.476 149.025,283.399 149.142,283.305 149.142 C 283.211 149.142,282.738 150.131,282.254 151.341 C 280.663 155.313,279.366 158.665,279.038 159.652 C 278.860 160.186,278.287 161.513,277.765 162.602 C 277.243 163.690,276.757 164.873,276.686 165.231 L 276.556 165.880 278.178 165.880 C 279.674 165.880,279.811 165.842,279.943 165.397 C 280.068 164.979,281.068 162.331,282.679 158.155 C 283.389 156.313,282.781 156.438,291.055 156.438 L 298.450 156.438 299.152 158.208 C 299.538 159.182,299.926 160.075,300.013 160.193 C 300.173 160.410,301.615 164.034,301.933 165.021 C 302.438 166.585,305.031 173.224,305.516 174.195 L 306.079 175.322 310.443 175.322 C 315.554 175.322,315.233 175.576,313.983 172.512 C 313.530 171.402,312.743 169.407,312.233 168.079 C 311.724 166.752,311.225 165.665,311.125 165.665 C 311.026 165.665,310.944 165.550,310.944 165.409 C 310.944 165.269,310.423 163.844,309.785 162.244 C 309.148 160.644,307.970 157.645,307.167 155.579 C 306.364 153.514,305.649 151.776,305.577 151.717 C 305.431 151.597,304.848 150.172,303.253 146.030 C 301.091 140.415,300.156 138.088,300.022 137.983 C 299.946 137.924,299.416 136.668,298.844 135.193 C 298.272 133.718,297.186 130.917,296.431 128.970 C 295.043 125.393,294.020 123.176,293.755 123.176 C 293.675 123.176,293.301 123.973,292.924 124.946 M339.378 123.407 C 333.039 123.941,325.781 127.572,323.066 131.568 C 322.713 132.086,322.174 132.769,321.867 133.085 C 317.102 137.991,315.727 153.321,319.279 161.933 C 320.623 165.193,321.274 166.168,324.337 169.511 C 326.948 172.361,330.474 174.360,334.764 175.421 C 336.003 175.727,337.249 176.096,337.533 176.240 C 338.270 176.615,345.744 176.609,345.869 176.234 C 345.918 176.086,346.132 175.966,346.343 175.966 C 349.277 175.966,357.405 171.553,355.687 170.893 C 355.510 170.825,355.365 170.679,355.365 170.569 C 355.365 170.252,354.450 169.099,354.198 169.099 C 354.073 169.099,353.394 169.551,352.690 170.104 C 349.538 172.578,344.049 173.963,340.059 173.291 C 335.101 172.455,331.187 169.150,328.721 163.716 C 328.217 162.604,327.743 161.647,327.668 161.588 C 327.181 161.205,326.084 156.205,325.738 152.790 C 325.290 148.373,326.158 141.642,327.577 138.519 C 327.738 138.165,328.157 137.229,328.508 136.440 C 330.607 131.719,333.630 128.670,337.616 127.255 C 338.349 126.995,339.181 126.671,339.465 126.535 C 340.130 126.216,345.242 126.209,345.451 126.526 C 345.533 126.652,346.074 126.872,346.652 127.015 C 348.524 127.479,351.161 128.638,352.757 129.699 C 353.614 130.269,354.337 130.700,354.365 130.657 C 354.392 130.614,354.773 130.129,355.211 129.578 C 356.222 128.308,356.224 128.323,354.882 127.459 C 354.262 127.060,353.624 126.605,353.462 126.448 C 351.431 124.464,344.528 122.974,339.378 123.407 M8.155 124.599 C 8.155 124.859,9.201 127.598,10.193 129.936 C 10.744 131.234,11.680 133.503,12.272 134.979 C 12.864 136.454,13.870 138.952,14.507 140.530 C 15.144 142.108,15.665 143.479,15.665 143.577 C 15.665 143.676,16.100 144.667,16.631 145.781 C 17.162 146.895,17.597 147.882,17.597 147.974 C 17.597 148.067,18.119 149.453,18.756 151.056 C 19.394 152.659,20.377 155.153,20.940 156.599 C 21.503 158.045,22.043 159.227,22.141 159.227 C 22.238 159.227,22.318 159.343,22.318 159.483 C 22.318 159.624,22.839 161.048,23.477 162.649 C 24.114 164.249,25.290 167.248,26.090 169.313 C 26.889 171.379,27.612 173.117,27.697 173.176 C 27.902 173.318,28.970 175.961,28.970 176.325 C 28.970 176.481,29.091 176.606,29.238 176.602 C 29.479 176.596,29.922 175.552,32.420 169.099 C 32.809 168.095,33.191 167.226,33.270 167.167 C 33.349 167.108,34.021 165.515,34.764 163.627 C 35.506 161.738,36.631 158.893,37.263 157.304 C 37.895 155.715,38.412 154.297,38.412 154.154 C 38.412 154.011,38.546 153.759,38.709 153.596 C 38.873 153.432,39.458 152.146,40.010 150.737 C 40.562 149.329,41.443 147.114,41.968 145.815 C 42.492 144.517,42.921 143.394,42.920 143.320 C 42.919 143.246,43.073 142.817,43.261 142.366 L 43.603 141.547 44.119 142.608 C 44.403 143.192,45.123 144.925,45.719 146.459 C 46.315 147.994,47.229 150.311,47.750 151.609 C 48.271 152.908,48.946 154.642,49.249 155.464 C 49.552 156.286,49.876 157.010,49.967 157.074 C 50.059 157.137,50.337 157.720,50.586 158.369 C 50.834 159.018,51.565 160.901,52.210 162.554 C 52.855 164.206,53.699 166.379,54.085 167.382 C 54.472 168.385,55.078 169.834,55.431 170.601 C 56.416 172.738,57.725 176.003,57.725 176.323 C 57.725 177.637,58.950 175.189,60.586 170.601 C 60.818 169.952,61.080 169.372,61.170 169.313 C 61.259 169.254,61.687 168.289,62.122 167.167 C 62.556 166.046,63.333 164.067,63.847 162.768 C 64.362 161.470,65.190 159.345,65.686 158.047 C 66.183 156.749,66.650 155.638,66.724 155.579 C 66.893 155.444,71.158 144.682,71.826 142.708 C 72.006 142.175,72.228 141.690,72.319 141.631 C 72.509 141.507,73.325 139.606,74.226 137.186 C 75.968 132.509,77.498 128.654,77.654 128.550 C 77.838 128.426,79.185 124.998,79.185 124.651 C 79.185 124.532,78.485 124.472,77.534 124.508 L 75.884 124.571 75.066 126.717 C 74.616 127.897,73.847 129.925,73.358 131.223 C 72.869 132.521,72.250 133.970,71.982 134.442 C 71.715 134.914,71.209 136.121,70.857 137.124 C 70.505 138.128,69.860 139.866,69.423 140.987 C 68.985 142.108,68.235 144.040,67.756 145.279 C 67.277 146.518,66.809 147.632,66.716 147.754 C 66.623 147.877,66.004 149.373,65.341 151.081 C 64.677 152.788,63.791 155.054,63.371 156.116 C 62.952 157.178,62.336 158.796,62.003 159.711 C 61.328 161.564,60.848 162.382,60.637 162.041 C 60.515 161.844,59.771 159.796,58.017 154.828 C 56.996 151.934,55.734 148.603,55.579 148.391 C 55.427 148.183,54.414 145.469,52.415 139.914 C 51.884 138.439,51.153 136.411,50.790 135.408 C 50.427 134.405,50.058 133.533,49.968 133.470 C 49.879 133.408,49.520 132.539,49.170 131.539 C 48.820 130.539,48.116 128.538,47.606 127.092 L 46.677 124.464 41.794 124.464 C 39.108 124.464,36.910 124.536,36.911 124.624 C 36.913 124.919,38.658 129.286,38.818 129.397 C 38.904 129.457,39.177 130.038,39.424 130.687 C 39.671 131.336,40.375 133.146,40.990 134.710 L 42.107 137.554 40.990 140.397 C 40.375 141.961,39.671 143.771,39.424 144.421 C 39.177 145.070,38.899 145.653,38.806 145.718 C 38.713 145.782,38.257 146.844,37.794 148.078 C 37.330 149.312,36.372 151.819,35.665 153.648 C 34.958 155.477,34.157 157.554,33.885 158.262 C 33.613 158.970,33.330 159.598,33.257 159.657 C 33.184 159.716,32.882 160.376,32.585 161.125 L 32.046 162.486 31.451 160.803 C 30.847 159.097,29.371 154.995,28.374 152.253 C 28.073 151.427,27.762 150.703,27.682 150.644 C 27.601 150.585,27.382 150.102,27.193 149.571 C 25.119 143.721,22.494 136.594,22.332 136.373 C 22.245 136.255,21.825 135.193,21.399 134.013 C 20.973 132.833,20.099 130.418,19.456 128.648 C 18.814 126.878,18.223 125.212,18.143 124.946 C 18.000 124.475,8.155 124.132,8.155 124.599 M141.416 149.877 L 141.416 175.322 145.601 175.322 L 149.785 175.322 149.785 164.485 L 149.785 153.648 151.785 153.648 L 153.784 153.648 154.401 154.939 C 154.740 155.650,155.183 156.408,155.385 156.625 C 155.587 156.841,156.400 158.264,157.192 159.786 C 157.984 161.308,158.707 162.650,158.799 162.768 C 158.891 162.886,159.328 163.707,159.771 164.592 C 160.214 165.477,160.744 166.395,160.951 166.631 C 161.157 166.867,162.219 168.749,163.311 170.813 C 164.403 172.877,165.402 174.736,165.532 174.944 C 165.871 175.485,175.322 175.530,175.322 174.990 C 175.322 174.682,172.604 169.554,172.314 169.313 C 172.161 169.186,169.957 165.224,169.957 165.075 C 169.957 164.964,167.389 160.354,166.161 158.262 C 164.424 155.300,163.085 152.575,163.368 152.575 C 166.346 152.575,172.103 146.504,172.103 143.363 C 172.103 143.138,172.224 142.914,172.371 142.865 C 172.737 142.743,172.750 136.130,172.386 135.388 C 172.247 135.104,172.016 134.485,171.873 134.013 C 171.009 131.158,169.039 128.516,166.916 127.363 C 166.287 127.022,165.652 126.623,165.504 126.477 C 165.145 126.121,163.090 125.360,161.373 124.947 C 160.255 124.678,158.139 124.593,150.697 124.521 L 141.416 124.431 141.416 149.877 M182.618 149.893 L 182.618 175.322 186.910 175.322 L 191.202 175.322 191.202 163.959 L 191.202 152.596 192.328 151.322 L 193.455 150.048 193.876 150.721 C 194.107 151.092,194.369 151.446,194.458 151.510 C 194.546 151.573,195.115 152.587,195.723 153.763 C 196.330 154.939,197.046 156.288,197.314 156.760 C 197.583 157.232,198.258 158.487,198.816 159.549 C 199.374 160.612,199.907 161.529,200.001 161.588 C 200.094 161.647,201.039 163.337,202.101 165.343 C 203.163 167.350,204.374 169.571,204.792 170.279 C 205.210 170.987,206.017 172.411,206.585 173.442 L 207.618 175.318 212.500 175.320 C 217.931 175.322,217.816 175.360,216.766 173.916 C 216.426 173.450,215.520 171.862,214.751 170.386 C 213.982 168.911,212.796 166.738,212.116 165.558 C 211.436 164.378,210.350 162.446,209.702 161.266 C 206.739 155.866,205.506 153.647,204.695 152.253 C 204.213 151.427,203.190 149.544,202.420 148.069 C 201.650 146.593,200.693 144.891,200.292 144.286 C 199.624 143.276,199.503 142.489,200.015 142.489 C 200.116 142.489,201.224 141.306,202.476 139.861 C 203.729 138.415,205.562 136.363,206.549 135.300 C 207.537 134.238,208.809 132.790,209.376 132.082 C 209.944 131.373,211.204 129.975,212.178 128.974 C 213.152 127.974,213.948 127.086,213.948 127.003 C 213.948 126.919,214.335 126.404,214.807 125.858 C 215.968 124.517,215.931 124.464,213.850 124.464 L 212.035 124.464 211.065 125.483 C 210.531 126.043,208.103 128.771,205.670 131.545 C 203.236 134.319,200.250 137.698,199.033 139.056 C 197.817 140.413,196.321 142.151,195.710 142.918 C 195.099 143.686,194.513 144.345,194.408 144.383 C 194.303 144.421,193.538 145.221,192.709 146.161 L 191.202 147.869 191.202 136.166 L 191.202 124.464 186.910 124.464 L 182.618 124.464 182.618 149.893 M223.391 149.893 L 223.391 175.322 227.575 175.322 L 231.760 175.322 231.760 164.485 L 231.760 153.648 235.891 153.647 C 245.911 153.645,251.193 151.075,253.532 145.064 C 255.676 139.553,253.864 130.504,250.183 128.338 C 249.871 128.155,248.921 127.533,248.074 126.957 C 244.932 124.822,242.578 124.466,231.599 124.465 L 223.391 124.464 223.391 149.893 M261.373 149.893 L 261.373 175.322 276.931 175.322 L 292.489 175.322 292.489 173.820 L 292.489 172.318 281.116 172.318 L 269.742 172.318 269.742 148.391 L 269.742 124.464 265.558 124.464 L 261.373 124.464 261.373 149.893 M363.305 149.893 L 363.305 175.322 377.575 175.322 L 391.845 175.322 391.845 173.820 L 391.845 172.318 381.760 172.318 L 371.674 172.318 371.674 160.193 L 371.674 148.069 379.936 148.069 L 388.197 148.069 388.197 146.674 L 388.197 145.279 379.936 145.279 L 371.674 145.279 371.674 136.373 L 371.674 127.468 381.760 127.468 L 391.845 127.468 391.845 125.966 L 391.845 124.464 377.575 124.464 L 363.305 124.464 363.305 149.893 M111.777 126.545 C 111.850 126.651,112.344 126.864,112.876 127.019 C 116.894 128.188,119.546 130.641,122.574 135.993 C 124.653 139.669,125.956 147.844,125.348 153.402 C 123.976 165.932,117.621 173.439,108.369 173.459 C 99.939 173.477,94.190 167.625,91.808 156.604 C 90.442 150.281,92.002 137.958,94.508 135.273 C 94.637 135.135,95.129 134.366,95.601 133.565 C 97.465 130.402,101.254 127.467,104.185 126.917 C 104.598 126.840,104.936 126.697,104.936 126.599 C 104.936 126.185,111.492 126.133,111.777 126.545 M157.794 127.960 C 162.763 129.562,165.189 135.504,163.824 142.734 C 162.731 148.528,159.536 150.846,152.629 150.855 L 149.785 150.858 149.785 139.138 L 149.785 127.417 153.273 127.522 C 155.576 127.591,157.111 127.740,157.794 127.960 M238.268 127.688 C 240.716 128.042,242.362 129.086,244.206 131.453 C 246.311 134.155,246.723 141.655,244.972 145.386 C 243.070 149.436,240.329 150.853,234.388 150.857 L 231.760 150.858 231.760 139.163 L 231.760 127.468 234.281 127.472 C 235.668 127.474,237.462 127.572,238.268 127.688 M292.301 140.665 C 293.968 145.056,294.271 145.808,294.418 145.923 C 294.493 145.982,294.757 146.561,295.005 147.210 C 295.253 147.859,295.890 149.525,296.419 150.912 L 297.382 153.433 291.073 153.433 C 287.603 153.433,284.764 153.361,284.763 153.273 C 284.762 153.117,285.186 152.010,287.533 146.030 C 288.135 144.496,288.628 143.120,288.627 142.972 C 288.627 142.825,288.709 142.704,288.809 142.704 C 288.910 142.704,289.460 141.480,290.031 139.985 C 290.603 138.489,291.109 137.403,291.156 137.571 C 291.204 137.738,291.719 139.131,292.301 140.665 M298.993 189.914 C 297.205 190.179,295.808 191.253,294.945 193.026 C 294.716 193.498,294.466 193.932,294.391 193.991 C 294.042 194.265,293.779 196.015,293.779 198.069 C 293.779 200.123,294.042 201.873,294.391 202.146 C 294.466 202.205,294.808 202.814,295.151 203.499 C 296.394 205.988,299.230 207.026,302.297 206.115 C 303.398 205.788,305.150 204.333,305.150 203.745 C 305.150 203.591,305.295 203.320,305.471 203.143 C 306.350 202.265,306.440 200.956,305.633 200.793 C 305.308 200.727,304.886 200.613,304.694 200.539 C 304.438 200.440,304.305 200.564,304.195 201.007 C 302.586 207.465,295.881 205.092,295.869 198.060 C 295.858 191.440,302.470 188.691,303.976 194.690 C 304.132 195.310,304.376 195.380,305.553 195.145 C 306.399 194.976,306.442 194.374,305.687 193.261 C 305.392 192.826,305.150 192.396,305.150 192.306 C 305.150 190.940,301.537 189.537,298.993 189.914 M322.154 190.201 C 320.282 190.879,319.531 192.093,319.529 194.443 C 319.527 196.694,320.880 197.900,324.448 198.829 C 328.133 199.787,328.755 200.200,328.755 201.686 C 328.755 205.717,321.905 205.522,320.548 201.452 C 320.383 200.957,318.639 201.711,318.794 202.211 C 319.702 205.146,321.432 206.310,324.893 206.314 C 328.938 206.320,330.687 204.840,330.687 201.413 C 330.687 198.996,329.628 198.026,325.751 196.888 C 321.982 195.783,321.459 195.462,321.459 194.260 C 321.459 191.017,326.831 190.470,328.120 193.581 C 328.384 194.219,329.678 194.428,330.191 193.915 C 330.409 193.697,329.532 191.796,328.939 191.203 C 327.767 190.032,324.109 189.492,322.154 190.201 M57.296 190.987 L 57.296 191.845 59.549 191.845 L 61.803 191.845 61.803 198.927 L 61.803 206.009 62.768 206.009 L 63.734 206.009 63.734 198.927 L 63.734 191.845 65.987 191.845 L 68.240 191.845 68.240 190.987 L 68.240 190.129 62.768 190.129 L 57.296 190.129 57.296 190.987 M81.545 198.069 L 81.545 206.009 82.618 206.009 L 83.691 206.009 83.691 202.253 L 83.691 198.498 87.339 198.498 L 90.987 198.498 90.987 202.253 L 90.987 206.009 91.845 206.009 L 92.704 206.009 92.704 198.069 L 92.704 190.129 91.845 190.129 L 90.987 190.129 90.987 193.348 L 90.987 196.567 87.339 196.567 L 83.691 196.567 83.691 193.348 L 83.691 190.129 82.618 190.129 L 81.545 190.129 81.545 198.069 M108.155 198.069 L 108.155 206.009 113.305 206.009 L 118.455 206.009 118.455 205.150 L 118.455 204.292 114.163 204.292 L 109.871 204.292 109.871 201.502 L 109.871 198.712 113.090 198.712 L 116.309 198.712 116.309 197.747 L 116.309 196.781 113.090 196.781 L 109.871 196.781 109.871 194.313 L 109.871 191.845 114.056 191.845 L 118.240 191.845 118.240 190.987 L 118.240 190.129 113.197 190.129 L 108.155 190.129 108.155 198.069 M132.189 198.069 L 132.189 206.009 133.262 206.009 L 134.335 206.009 134.335 202.682 L 134.335 199.356 136.373 199.356 C 137.997 199.356,138.412 199.419,138.412 199.663 C 138.412 199.831,138.545 200.103,138.708 200.265 C 138.990 200.547,139.693 202.075,140.783 204.775 L 141.281 206.009 142.314 206.009 C 142.883 206.009,143.348 205.912,143.348 205.793 C 143.348 205.574,142.145 202.651,141.100 200.331 C 140.549 199.108,140.541 199.041,140.917 198.776 C 144.146 196.496,143.829 191.308,140.403 190.356 C 139.957 190.232,137.927 190.131,135.891 190.130 L 132.189 190.129 132.189 198.069 M160.997 190.377 C 160.850 190.524,160.730 190.763,160.730 190.908 C 160.730 191.053,160.259 192.652,159.684 194.460 C 157.513 201.282,156.240 205.477,156.228 205.848 C 156.226 205.936,156.605 206.009,157.072 206.009 L 157.921 206.009 158.574 203.893 C 158.934 202.729,159.227 201.666,159.227 201.532 C 159.227 201.362,160.042 201.288,161.893 201.288 L 164.559 201.288 164.773 201.985 C 164.891 202.369,165.202 203.431,165.465 204.345 L 165.942 206.009 167.114 206.009 C 168.065 206.009,168.263 205.948,168.164 205.689 C 168.096 205.513,167.784 204.526,167.470 203.497 C 167.156 202.467,166.808 201.476,166.698 201.295 C 166.587 201.114,165.752 198.552,164.843 195.601 L 163.189 190.236 162.226 190.173 C 161.663 190.136,161.153 190.220,160.997 190.377 M181.330 198.051 L 181.330 206.009 182.403 206.009 L 183.476 206.009 183.476 202.915 L 183.476 199.821 185.998 199.750 C 190.166 199.631,191.474 198.542,191.582 195.100 C 191.705 191.165,190.506 190.275,184.932 190.164 L 181.330 190.093 181.330 198.051 M204.936 198.069 L 204.936 206.009 210.193 206.009 L 215.451 206.009 215.451 205.150 L 215.451 204.292 211.266 204.292 L 207.082 204.292 207.082 201.502 L 207.082 198.712 210.300 198.712 L 213.519 198.712 213.519 197.747 L 213.519 196.781 210.300 196.781 L 207.082 196.781 207.082 194.313 L 207.082 191.845 211.159 191.845 L 215.236 191.845 215.236 190.987 L 215.236 190.129 210.086 190.129 L 204.936 190.129 204.936 198.069 M229.185 196.019 C 229.185 203.896,229.398 204.803,231.493 205.824 C 233.121 206.618,236.390 206.559,237.924 205.709 C 240.156 204.473,240.185 204.360,240.293 196.513 L 240.382 190.129 239.414 190.129 L 238.447 190.129 238.371 196.191 C 238.272 204.114,238.070 204.601,234.871 204.610 C 231.344 204.619,231.249 204.410,231.161 196.406 L 231.092 190.129 230.138 190.129 L 229.185 190.129 229.185 196.019 M253.219 190.987 L 253.219 191.845 255.579 191.845 L 257.940 191.845 257.940 198.927 L 257.940 206.009 258.906 206.009 L 259.871 206.009 259.871 198.927 L 259.871 191.845 262.124 191.845 L 264.378 191.845 264.378 190.987 L 264.378 190.129 258.798 190.129 L 253.219 190.129 253.219 190.987 M277.468 198.069 L 277.468 206.009 278.541 206.009 L 279.614 206.009 279.614 198.069 L 279.614 190.129 278.541 190.129 L 277.468 190.129 277.468 198.069 M139.770 192.082 C 141.023 192.653,141.557 194.801,140.767 196.097 C 140.132 197.138,139.230 197.425,136.595 197.425 L 134.335 197.425 134.335 194.635 L 134.335 191.845 136.792 191.845 C 138.144 191.845,139.484 191.952,139.770 192.082 M188.200 192.328 C 191.499 194.574,189.910 197.854,185.524 197.854 L 183.476 197.854 183.476 194.850 L 183.476 191.845 185.483 191.845 C 187.211 191.845,187.589 191.913,188.200 192.328 M162.417 194.367 C 162.558 194.810,162.915 195.992,163.210 196.996 C 163.504 197.999,163.797 198.989,163.861 199.195 C 163.966 199.535,163.781 199.571,161.935 199.571 L 159.894 199.571 160.073 198.981 C 160.171 198.656,160.423 197.787,160.632 197.049 C 160.841 196.312,161.085 195.708,161.173 195.708 C 161.261 195.708,161.457 195.225,161.609 194.635 C 161.938 193.351,162.077 193.305,162.417 194.367 " stroke="none" fill="#040404" fill-rule="evenodd"></path><path id="path1" d="" stroke="none" fill="#080404" fill-rule="evenodd"></path><path id="path2" d="" stroke="none" fill="#080404" fill-rule="evenodd"></path><path id="path3" d="" stroke="none" fill="#080404" fill-rule="evenodd"></path><path id="path4" d="" stroke="none" fill="#080404" fill-rule="evenodd"></path></g></svg>